<?xml version="1.0" standalone="no"?>
<!DOCTYPE svg PUBLIC "-//W3C//DTD SVG 20010904//EN"
 "http://www.w3.org/TR/2001/REC-SVG-20010904/DTD/svg10.dtd">
<svg version="1.0" xmlns="http://www.w3.org/2000/svg"
 width="512.000000pt" height="512.000000pt" viewBox="0 0 512.000000 512.000000"
 preserveAspectRatio="xMidYMid meet">

<g transform="translate(0.000000,512.000000) scale(0.100000,-0.100000)"
fill="#000000" stroke="none">
<path d="M1085 4828 l-230 -100 -155 6 c-85 4 -187 9 -225 12 l-71 6 -107
-162 c-59 -89 -107 -165 -107 -168 0 -4 75 -56 166 -116 149 -99 167 -114 186
-155 11 -25 35 -77 53 -116 17 -38 44 -98 59 -131 l28 -62 211 -53 210 -54 42
-170 c23 -93 68 -276 100 -404 l58 -235 80 -95 c45 -53 182 -215 305 -359
l225 -264 -21 -21 -21 -20 87 -69 c59 -46 93 -67 107 -64 63 13 425 59 430 54
3 -3 20 -63 37 -134 17 -71 35 -134 40 -140 5 -7 64 -31 131 -54 67 -24 127
-48 133 -54 13 -12 76 -128 72 -131 -2 -1 -80 -42 -175 -91 -95 -49 -169 -92
-165 -96 4 -3 46 -18 94 -33 l87 -27 -29 -57 c-17 -31 -40 -74 -53 -96 -24
-43 -50 -90 -178 -320 -45 -82 -90 -163 -99 -180 -9 -16 -36 -65 -60 -108 -23
-43 -49 -81 -57 -84 -14 -6 -454 104 -464 115 -8 10 -99 229 -99 240 0 4 -81
68 -180 141 l-180 134 0 198 0 199 -207 0 c-115 0 -245 -3 -290 -7 l-83 -6 0
-422 0 -423 148 -40 c81 -23 166 -46 189 -52 36 -9 66 -35 205 -180 l162 -169
42 -103 42 -103 1707 -3 1706 -2 -11 20 c-6 12 -48 85 -93 163 -45 78 -87 154
-94 168 -10 23 -119 215 -496 869 -71 124 -188 328 -260 454 l-132 230 -41
168 -42 169 69 230 69 231 0 158 0 159 71 123 c39 68 80 137 90 154 l19 31
-230 144 -230 143 5 45 c10 97 16 651 7 651 -5 0 -177 20 -382 45 l-373 44
-340 -114 c-187 -63 -341 -115 -342 -115 -2 0 22 -145 50 -295 37 -198 95
-538 93 -541 -2 -1 -72 -34 -156 -72 -84 -38 -154 -72 -155 -75 -1 -3 72 -57
163 -120 l165 -114 3 -91 c2 -83 5 -93 27 -110 13 -11 40 -33 60 -51 l35 -31
-66 -101 -66 -101 52 -53 52 -52 -28 -102 c-15 -55 -32 -101 -38 -101 -6 0
-71 7 -145 14 l-133 14 -57 56 c-54 53 -58 55 -78 41 -24 -17 -20 -25 -47 85
-4 14 -40 158 -82 320 -72 280 -75 298 -65 350 6 30 17 96 26 145 8 50 19 113
25 140 5 28 16 96 25 151 l16 101 -85 172 c-47 94 -86 176 -86 183 0 6 34 63
77 127 42 63 80 131 84 151 4 19 10 103 14 186 l7 152 -215 71 -216 72 -86
120 c-48 65 -87 119 -88 118 -1 0 -105 -46 -232 -101z"/>
</g>
</svg>
